<svg width="128" height="128" viewBox="0 0 128 128" fill="none" xmlns="http://www.w3.org/2000/svg">
<g clip-path="url(#clip0_0_1)">
<path d="M13.608 69.4318L14.6307 63.2955L34.8807 55.6761L33.8068 62.1193L21.0227 66.3125L21.2784 66.0057L21.125 66.7216L20.9716 66.4148L32.4261 70.608L31.3523 77.0511L13.608 69.4318ZM113.244 69.4318L92.9428 77.0511L94.0167 70.608L106.801 66.4148L106.545 66.7216L106.699 66.0057L106.852 66.3125L95.3974 62.1193L96.4712 55.6761L114.267 63.2955L113.244 69.4318Z" fill="#00B2FF"/>
<path d="M43.1967 77.2557C41.799 77.2557 40.5717 76.8892 39.5149 76.1562C38.4666 75.4233 37.7124 74.3111 37.2521 72.8196C36.8004 71.3281 36.7621 69.4489 37.1371 67.1818C37.5291 64.8125 38.2152 62.8864 39.1953 61.4034C40.1839 59.9205 41.3175 58.8338 42.5959 58.1435C43.8828 57.4531 45.174 57.108 46.4695 57.108C47.4411 57.108 48.2635 57.2784 48.9368 57.6193C49.6186 57.9517 50.1598 58.3991 50.5604 58.9616C50.9609 59.5156 51.2337 60.125 51.3786 60.7898H51.4808L53.1428 50.8182H60.1996L55.853 77H48.8473L49.3842 73.7784H49.2308C48.8473 74.4432 48.3572 75.0398 47.7607 75.5682C47.1726 76.0881 46.495 76.5014 45.728 76.8082C44.9609 77.1065 44.1172 77.2557 43.1967 77.2557ZM46.6996 71.8352C47.3473 71.8352 47.9354 71.6477 48.4638 71.2727C48.9922 70.8892 49.4396 70.3523 49.8061 69.6619C50.1726 68.9631 50.4325 68.1364 50.5859 67.1818C50.7479 66.2102 50.7607 65.3793 50.6243 64.6889C50.4879 63.9901 50.2152 63.4574 49.8061 63.0909C49.4055 62.7159 48.8814 62.5284 48.2337 62.5284C47.5859 62.5284 47.0021 62.7159 46.4822 63.0909C45.9624 63.4574 45.5234 63.9901 45.1655 64.6889C44.8161 65.3793 44.5604 66.2102 44.3984 67.1818C44.2365 68.1534 44.2152 68.9886 44.3345 69.6875C44.4624 70.3778 44.7266 70.9105 45.1271 71.2855C45.5277 71.652 46.0518 71.8352 46.6996 71.8352ZM59.3175 77L62.5902 57.3636H69.647L66.3743 77H59.3175ZM66.4254 55.3182C65.4709 55.3182 64.6996 55.0028 64.1115 54.3722C63.5234 53.733 63.3061 52.9744 63.4595 52.0966C63.6129 51.2017 64.0817 50.4432 64.8658 49.821C65.6499 49.1903 66.5192 48.875 67.4737 48.875C68.4368 48.875 69.2038 49.1903 69.7749 49.821C70.3459 50.4432 70.5589 51.2017 70.4141 52.0966C70.2777 52.9744 69.8175 53.733 69.0334 54.3722C68.2578 55.0028 67.3885 55.3182 66.4254 55.3182ZM93.0323 57.3636L83.163 77H74.9812L71.6573 57.3636H78.8164L79.8391 70.3523H80.0437L85.3619 57.3636H93.0323Z" fill="#D07100"/>
<circle cx="64" cy="64" r="57" stroke="#FF0000" stroke-width="14"/>
<rect x="18" y="103" width="120.234" height="10" transform="rotate(-45 18 103)" fill="#FF0000"/>
</g>
<defs>
<clipPath id="clip0_0_1">
<rect width="128" height="128" fill="white"/>
</clipPath>
</defs>
</svg>
